<svg width="24" height="24" viewBox="0 0 24 24" fill="none" xmlns="http://www.w3.org/2000/svg">
<path d="M23.8098 12C23.8098 5.44655 18.5152 0.151855 11.9619 0.151855C5.40871 0.151855 0.114014 5.44655 0.114014 12C0.114014 18.5535 5.40871 23.8479 11.9619 23.8479C18.5152 23.8479 23.8098 18.5532 23.8098 12Z" fill="white"/>
<path fill-rule="evenodd" clip-rule="evenodd" d="M6.2711 13.7361C6.2711 13.1067 6.03233 12.7597 5.35984 12.7597H4.70865V14.6909H5.31625C5.94588 14.6907 6.2711 14.3437 6.2711 13.7361ZM6.16261 10.546C6.16261 9.8951 5.75045 9.63478 5.12106 9.63478H4.70865V11.4358H5.12106C5.75045 11.4358 6.16261 11.0669 6.16261 10.546ZM8.28931 13.8879C8.28931 15.4068 7.26931 16.1447 5.22955 16.1447H2.64735V8.13747H5.42498C7.39984 8.13747 8.22416 9.00539 8.22416 10.1557C8.22416 11.1754 7.74686 11.6963 6.792 12C7.7902 12.1518 8.28931 12.8248 8.28931 13.8879ZM15.5589 13.2152C15.5589 15.1249 14.4955 16.2313 12.5209 16.2313C10.4378 16.2313 9.46114 15.1464 9.46114 13.5191V8.13747H11.6312V13.2588C11.6312 14.1485 11.9351 14.5607 12.5642 14.5607C13.2588 14.5607 13.5407 14.1703 13.5407 13.1067V8.13747H15.5589V13.2152ZM22.0469 13.6276C22.0469 15.19 20.9187 16.2316 19.009 16.2316C18.3147 16.2316 17.642 16.1449 16.8174 15.9713L16.9261 14.2134C17.5771 14.4955 18.1195 14.5607 18.6838 14.5607C19.3562 14.5607 19.8122 14.3437 19.8122 13.8664C19.8122 13.4106 19.5735 13.1503 18.3801 12.7379C17.2298 12.3473 16.6658 11.5445 16.6658 10.3944C16.6658 8.96204 17.8158 8.05078 19.5519 8.05078C20.2244 8.05078 20.8756 8.13747 21.635 8.3111L21.5481 9.87355C21.049 9.63478 20.4198 9.48294 19.9207 9.48294C19.2047 9.48294 18.8789 9.78686 18.8789 10.2208C18.8789 10.6332 19.1393 10.9151 20.2026 11.3275C21.5478 11.8482 22.0469 12.5424 22.0469 13.6276ZM24 12C24 5.38163 18.6186 0 12 0C5.38163 0 0 5.38163 0 12C0 18.6186 5.38163 24 12 24C18.6186 24 24 18.6186 24 12Z" fill="#A61680"/>
</svg>
