<svg width="25" height="24" viewBox="0 0 25 24" fill="none" xmlns="http://www.w3.org/2000/svg">
<path d="M24.1597 12C24.1597 5.37771 18.7822 0 12.1597 0C5.53738 0 0.159668 5.37771 0.159668 12C0.159668 18.6225 5.53738 24 12.1597 24C18.7822 24 24.1597 18.6225 24.1597 12Z" fill="#FFEC00"/>
<path fill-rule="evenodd" clip-rule="evenodd" d="M8.2674 15.3178C8.2674 14.8716 8.66536 14.5097 9.15614 14.5097C9.64716 14.5097 10.0449 14.8714 10.0449 15.3178C10.0449 15.764 9.64691 16.1258 9.15614 16.1258C8.66512 16.1258 8.2674 15.764 8.2674 15.3178ZM14.2748 15.3178C14.2748 14.8716 14.6727 14.5097 15.1635 14.5097C15.6543 14.5097 16.0522 14.8714 16.0522 15.3178C16.0522 15.764 15.6543 16.1258 15.1635 16.1258C14.6727 16.1258 14.2748 15.764 14.2748 15.3178ZM7.57214 13.2369C7.57214 13.2369 10.6363 13.0444 12.1571 13.0484C13.7419 13.0525 16.7416 13.2249 16.7416 13.2249C16.9427 11.4928 16.6559 10.3241 16.0123 8.66151C16.0123 8.66151 13.6654 8.34363 12.1632 8.34167C10.6608 8.33971 8.31418 8.65171 8.31418 8.65171C7.67132 10.3229 7.38014 11.4964 7.57214 13.2369ZM17.9889 21.9462L17.6835 20.9566H15.788V19.9613H14.7697V20.9566H9.54504V19.9613H8.52675V20.9566H6.66185L6.331 21.9462H17.9889ZM11.2711 6.69351C11.2711 6.24731 11.669 5.88559 12.1598 5.88559C12.6508 5.88559 13.0485 6.24731 13.0485 6.69351C13.0485 7.13971 12.6506 7.50167 12.1598 7.50167C11.669 7.50143 11.2711 7.13971 11.2711 6.69351ZM8.52675 18.9685L7.28022 17.4497C6.05451 15.8304 6.11353 14.1531 6.10275 12.872C6.09002 11.3747 6.24847 9.83776 6.77573 8.242C7.15924 7.21539 8.19222 5.47318 9.04422 5.14502C9.94765 4.93686 11.0534 4.90771 12.1598 4.90771C13.2663 4.90771 14.372 4.93686 15.2754 5.14502C16.1274 5.47318 17.1604 7.21539 17.5439 8.242C18.0709 9.838 18.2296 11.3747 18.2169 12.872C18.2061 14.1531 18.2651 15.8304 17.0396 17.4497L15.7877 18.9685H8.52675Z" fill="#1D1D1B"/>
<path d="M12.7296 3.03553L13.0168 4.04182H11.7554L11.4681 3.03553H9.14746L9.47832 2.04517H14.8666L15.172 3.03553H12.7296Z" fill="#1D1D1B"/>
</svg>
