<svg width="24" height="24" viewBox="0 0 24 24" fill="none" xmlns="http://www.w3.org/2000/svg">
<path fill-rule="evenodd" clip-rule="evenodd" d="M24 12C24 5.38163 18.6184 0 12 0C5.38163 0 0 5.38163 0 12C0 18.6184 5.38163 24 12 24C18.6184 24 24 18.6184 24 12Z" fill="white"/>
<path fill-rule="evenodd" clip-rule="evenodd" d="M19.8771 15.19C19.8771 18.0977 17.0562 21.4829 12.3039 21.4829C9.65657 21.4829 6.59682 20.2896 4.92588 18.7922V15.0162C6.50988 17.2947 9.39625 19.0523 12.3039 19.0523C14.0833 19.0523 15.5155 18.0323 15.5155 16.9474C15.5155 12.8461 4.77429 15.385 4.77429 8.31086C4.77429 4.60016 8.39804 2.60376 11.653 2.60376C14.3655 2.60376 16.7958 3.49347 18.7271 4.99078V8.13723C17.0562 6.33625 14.5389 4.752 11.5876 4.752C9.91665 4.752 8.96204 5.64147 8.96204 6.68327C8.96204 11.0669 19.8771 7.98539 19.8771 15.19ZM24 12C24 5.38163 18.6184 0 12 0C5.38163 0 0 5.38163 0 12C0 18.6184 5.38163 24 12 24C18.6184 24 24 18.6184 24 12Z" fill="#009154"/>
</svg>
