<svg width="24" height="24" viewBox="0 0 24 24" fill="none" xmlns="http://www.w3.org/2000/svg">
<path d="M23.5119 0.168701H0.330078V23.351H23.5119V0.168701Z" fill="white"/>
<path fill-rule="evenodd" clip-rule="evenodd" d="M12.0644 12.6888V12.1339H11.9437C10.9539 12.1339 10.6397 12.3751 10.6397 12.9785C10.6397 13.4366 10.8812 13.6538 11.2193 13.6538C11.63 13.6536 12.0644 13.4364 12.0644 12.6888ZM6.36559 8.58768H4.60279V14.5944H2.67103V8.58768H1.05319V7.16448H6.36559V8.58768ZM9.14263 10.8554C9.02215 10.8314 8.85295 10.8314 8.73223 10.8314C7.95943 10.8314 7.57303 11.2896 7.57303 12.2064V14.5946H5.78599V9.38424H7.35559L7.45231 10.4215C7.74199 9.48072 8.24911 9.23928 9.04591 9.23928H9.14239L9.14263 10.8554ZM13.634 14.5944H12.1611L12.0886 13.895C11.7747 14.4739 11.1709 14.6669 10.6157 14.6669C9.67399 14.6669 9.09439 14.112 9.09439 13.0507C9.09439 11.8445 9.96343 11.3136 11.7989 11.3136H12.0644V11.1446C12.0644 10.6622 11.8229 10.421 11.1709 10.421C10.5188 10.421 10.0117 10.5175 9.64951 10.638V9.48C9.98767 9.38352 10.688 9.2148 11.4848 9.2148C13.0059 9.2148 13.6337 10.0834 13.6337 10.9277V14.5944H13.634ZM22.3515 14.5944H20.5887V11.4583C20.5887 11.0242 20.3713 10.8312 20.0331 10.8312C19.5502 10.8312 19.357 11.1929 19.357 11.627V14.5944H17.6427V11.4583C17.6427 11.0242 17.4253 10.8312 17.0871 10.8312C16.6042 10.8312 16.411 11.1929 16.411 11.627V14.5944H14.648V9.384H16.3383V10.3006C16.435 9.6252 17.0386 9.23904 17.7872 9.23904C18.4393 9.23904 18.9464 9.60096 19.1878 10.1556C19.4535 9.62496 19.9364 9.23904 20.7574 9.23904C21.7232 9.23904 22.351 9.9144 22.351 10.9759V14.5944H22.3515ZM0.159668 23.52H23.6797V0H0.159668V23.52Z" fill="#E20613"/>
</svg>
